<?xml version="1.0" encoding="utf-8"?>
<!-- Generator: Adobe Illustrator 21.0.0, SVG Export Plug-In . SVG Version: 6.00 Build 0)  -->
<svg fill='white' version="1.1" id="Layer_1" xmlns="http://www.w3.org/2000/svg" xmlns:xlink="http://www.w3.org/1999/xlink" x="0px" y="0px"
	 viewBox="0 0 2000 2000" style="enable-background:new 0 0 2000 2000;" xml:space="preserve">
<path d="M1780.4,1113.7c0-74.7,0-149.4,0-224.1c0-56.5,0-113,0-169.5c0-53.4-31-96.6-87.8-98.5c-37.2-1.3-74.5-1.2-111.8-0.8
	c0-12.5,0-25.1,0-37.6c0-6.3,0.2-12.6,0-18.9c-0.8-19.1-11.3-37.2-28.2-46.5c-12-6.5-24.5-6.9-37.7-6.9c-10.7,0-22-0.9-32.5,1.5
	c-4.3,1-8.4,2.7-12.3,4.7c0-46.1,0-92.3,0-138.4c0-4.1-1.5-7.1-3.6-9.4c-0.3-0.4-0.5-0.7-0.8-1s-0.6-0.5-0.9-0.7
	c-2.3-2.2-5.4-3.7-9.5-3.7c-265.4,0-530.8,0-796.2,0c-38.2,0-76.3,0-114.5,0c-8,0-14.8,6.8-14.8,14.9c0,46.1,0,92.3,0,138.5
	c-11.5-5.8-23.5-6.3-36.2-6.3c-10.7,0-22-0.9-32.5,1.5c-18.6,4.2-33.6,19-39.5,36.9c-2.8,8.7-2.5,17.7-2.5,26.7
	c0,15.2,0,30.4,0,45.6c-30.5,0-61.1,0-91.6,0c-37.9,0-74.6,6.2-96.1,42.7c-19.7,33.5-11.8,84.9-11.8,122c0,135.8,0,271.7,0,407.5
	c0,14.3-1.1,29.4,2.2,43.4c9.3,40.1,44.7,65.4,84.7,66.9c60,2.4,120.5,0,180.6,0c14.3,0,28.5,0,42.8,0c0,79,0,157.9,0,236.9
	c0,26.8,0,53.7,0,80.5c0,8,6.8,14.8,14.8,14.8c265.4,0,530.8,0,796.3,0c38.2,0,76.3,0,114.5,0c4.1,0,7.1-1.5,9.4-3.6
	c0.3-0.3,0.7-0.5,1-0.8s0.5-0.6,0.7-0.9c2.2-2.3,3.7-5.4,3.7-9.5c0-105.8,0-211.6,0-317.4c52.9,0,105.8,0,158.7,0
	c21.7,0,43.6,0.9,65.3,0c42.7-1.8,79.3-31.1,85.4-74.4C1784.7,1192.1,1780.4,1151.5,1780.4,1113.7z M1470,566.3
	c0.2-9.4,4.4-17.4,11.8-22c0.8-0.5,1.7-0.9,2.5-1.4c0.1-0.1,0.6-0.3,0.9-0.5c1.4-0.6,2.9-1,4.3-1.4c0.6-0.2,1.2-0.3,1.9-0.4
	c0.3-0.1,0.7-0.1,0.8-0.1c1.1-0.1,2.2-0.1,3.3-0.1c3.6,0,7.2,0,10.8,0c5.1,0,10.1,0,15.2,0c1.3,0,2.7,0,4,0c0.6,0,1.2,0,1.9,0
	c0,0,0,0,0,0c0.1,0,0.1,0,0.2,0c0.8,0,1.7,0.1,2.5,0.2c0.2,0.1,0.6,0.2,1,0.3c0.4,0.2,0.9,0.3,1.3,0.4c0.7,0.2,1.4,0.4,2.1,0.6
	c0.6,0.2,1.1,0.3,1.7,0.5c0.3,0.2,2.4,1.3,2.8,1.5c3.1,1.9,3.1,2.1,6.4,5.4c0.4,0.4,0.3,0.3,0.5,0.5c0.6,0.7,1,1.4,1.5,2.2
	c0.4,0.6,1.6,2.8,1.9,3.3c-0.2-0.4-0.3-0.8,0,0c0.1,0.1,0,0.1,0,0c0.1,0.4,0.3,0.9,0.3,0.9c0.3,0.9,0.6,1.8,0.9,2.8
	c0.2,0.9,0.4,1.8,0.6,2.7c0,0.2,0.1,0.4,0.1,0.7c0.3,5.9,0.1,11.8,0.1,17.6c0,13.6,0,27.2,0,40.8c-22.1,0.3-44.2,0.5-66.2,0.5
	c-5,0-9.9,0-14.9,0v0c-0.1,0-0.1,0-0.2,0c0-11.2,0-22.3,0-33.5C1470,580.7,1469.9,573.5,1470,566.3z M559.4,583
	c0-63.2,0-126.4,0-189.6v0c260.5,0,521,0,781.4,0c33.2,0,66.4,0,99.6,0v0c0,60.9,0,121.7,0,182.5c0,15.2,0,30.4,0,45.6
	c-260.5,0-520.9,0-781.4,0c-16.7,0-33.3,0-50,0c-16.5,0-33.1,0-49.6,0C559.4,608.6,559.4,595.8,559.4,583z M448.5,588
	c0-7.2,0-14.4,0-21.6c0.1-9.5,4.3-17.5,11.7-22.1c0.8-0.5,1.7-0.9,2.5-1.4c0.2-0.1,0.7-0.3,1-0.5c1.5-0.6,2.9-1,4.4-1.4
	c0.3,0,0.6-0.1,0.9-0.2c0.1,0,0.3-0.1,0.4-0.1c0.2,0,0.4-0.1,0.6-0.1c0.1,0,0.3,0,0.4,0c0.1,0,0.2,0,0.4,0c0,0,0,0,0.1,0
	c0.2,0,0.3,0,0.5,0c0.9-0.1,1.8-0.1,2.8-0.1c0,0,0,0,0.1,0c0.1,0,0.1,0,0.2,0c3.5,0,7.1,0,10.6,0c0.1,0,0.1,0,0.2,0c5,0,10,0,15,0
	c0.1,0,0.1,0,0.2,0c1.2,0,2.5,0,3.8,0c0.1,0,0.1,0,0.2,0c0.6,0,1.2,0,1.7,0c0.1,0,0.1,0,0.2,0c0.8,0,1.6,0.1,2.5,0.2
	c0.3,0.1,0.7,0.2,1,0.3c1.7,0.5,3.4,0.9,5.1,1.6c0.3,0.2,2.4,1.3,2.8,1.5c3.1,1.8,3.1,2,6.4,5.4c0.4,0.4,0.3,0.3,0.5,0.5
	c0.5,0.7,1,1.5,1.5,2.2c0.4,0.6,1.4,2.5,1.8,3.2c-0.1-0.3-0.2-0.5,0.1,0.1c0.1,0.2,0,0.1-0.1-0.1c0.1,0.4,0.4,1,0.4,1
	c0.3,0.9,0.6,1.9,0.9,2.8c0.2,0.9,0.4,1.8,0.6,2.7c0,0.2,0.1,0.4,0.1,0.7c0.3,5.8,0.1,11.7,0.1,17.6c0,13.8,0,27.5,0,41.3
	c-0.1,0-0.1,0-0.2,0c-27,0-54,0-81.2,0.1C448.5,610.3,448.5,599.2,448.5,588z M559.4,1544.1c0-98.6,0-197.2,0-295.8h0l0,0
	c101.8,63.2,203.5,126.5,305.3,189.7c0,0,0,0,0,0c8.7,5.4,17.5,10.8,26.2,16.3c0,0,0,0,0,0c0,0,0,0,0,0c-4.8,3.1-9.5,6.1-14.2,9.2
	c0,0,0,0,0,0c-34.4,22.1-68.9,44.2-103.4,66.3h0l0,0c-19.1-9-38.1-18-57.2-27c-0.1,0-0.2-0.1-0.3-0.1c-13.3-6.3-28.4-17.3-43.2-17
	c-2.8,0.1-5.5,0.5-8.2,1.4c0,0,0,0,0,0c-0.1,0-0.2,0.1-0.2,0.1c-23.2,8.1-46,25-67.6,36.8c0,0,0,0,0,0
	C584.1,1530.7,571.7,1537.4,559.4,1544.1L559.4,1544.1L559.4,1544.1z M1440.5,1339.3c0,67.3,0,134.4,0,201.6c0,0,0,0.1,0,0.1
	c0,21.8,0,43.6,0,65.5c0,0.1,0,0.1,0,0.2c-260.5,0-520.9,0-781.4,0c-33.2,0-66.4,0-99.6,0c0,0,0-0.1,0-0.1c0-9.6,0-19,0-28.6
	c0,0,0-0.1,0-0.1c38.2-20.8,76.4-41.5,114.6-62.3c19.3,9.1,38.5,18.2,57.8,27.3c13.7,6.5,34.7,22.2,50.3,16.4
	c26.7-9.9,53.6-34.4,77.4-49.6c106.6-68.4,213.3-136.8,319.9-205.3c26.9-17.3,53.9-34.6,80.8-51.9c60.1,28.9,120.1,57.8,180.2,86.7
	C1440.5,1339.2,1440.5,1339.3,1440.5,1339.3z M1440.8,1306.6c-0.1,0-0.2-0.1-0.3-0.1c0,0,0,0,0,0c-46-22.2-92-44.3-138.3-66.4
	c-12.3-5.9-31.1-19.7-46.1-18.2c-1.5,0.2-3,0.5-4.5,1c-9.3,3.4-18.8,12.1-27.1,17.4c-101.9,65.4-203.9,130.8-305.8,196.3
	c-0.1,0-0.1-0.1-0.2-0.1c0,0-0.1,0.1-0.1,0.1c-106.6-66.2-213.3-132.5-320-198.8c-13-8.1-26.1-16.2-39.1-24.3c0-14.6,0-29.2,0-43.8
	c0.1,0,0.2,0,0.3,0c225.8,0,451.7,0,677.5,0c0.1,0,0.2,0,0.3,0c32.6,0,65.1,0,97.7,0c19.1,0,19.1-29.7,0-29.7
	c-230.8,0-461.6,0-692.4,0c-0.1,0-0.2,0-0.3,0c-27.6,0-55.2,0-82.8,0c-0.1,0-0.2,0-0.3,0c0-16.8,0-33.7,0-50.6c0.1,0,0.2,0,0.3,0
	c170,0,340,0,510,0c0.1,0,0.2,0,0.3,0c24.8,0,49.6,0,74.3,0c19.1,0,19.1-29.7,0-29.7c-174.9,0-349.9,0-524.8,0c-0.1,0-0.2,0-0.3,0
	c-19.8,0-39.6,0-59.4,0c-0.1,0-0.2,0-0.3,0c0-20.3,0-40.5,0-60.8c2.7-0.1,5.4-0.2,7.9-0.2c64.8,0,129.5,0,194.3,0
	c186.1,0,372.3,0,558.4,0c7,0,13.9,0,20.9,0c33.2,0,66.4,0,99.6,0v0c0.1,0,0.2,0,0.3,0C1440.8,1101.3,1440.8,1203.9,1440.8,1306.6z
	 M1456.4,968.9C1456.4,968.9,1456.3,968.9,1456.4,968.9c-0.1,0-0.1,0-0.1,0c-0.3,0-0.7,0-1.1,0c-265.4,0-530.8,0-796.2,0
	c-14.1,0-28.2,0-42.3,0c-24,0-48,0-72.1,0c-0.2,0-0.3,0.1-0.5,0.1c-0.5,0-1,0-1.6,0c-0.5,0-1.1,0-1.5-0.1
	c-21.3-5.3-11.5-34.5-5.2-54.3c0.1,0,0.1,0,0.2,0v0c272.7,0,545.3,0,817.9,0c36,0,71.9,0,107.9,0
	C1469.3,933.7,1480.2,964.1,1456.4,968.9z M1732.4,1258.5c-9,9.4-22.6,15.5-42.9,16.1c-60.5,1.8-121.3,0-181.8,0
	c-12.6,0-25.2,0-37.8,0c0-70.1,0-140.1,0-210.2c0-22.6,0-45.2,0-67.7c0.1,0,0.1,0,0.2-0.1c0,0,0-0.1,0-0.1c8.3-2,14.5-5.3,19.1-9.6
	c21.9-20.5,6-62.7-3-91c-2-6.3-7.6-10.9-14.3-10.9c-276.3,0-552.6,0-828.9,0c-39.4,0-78.8,0-118.2,0c-4.3,0-8.5,2.1-11.3,5.3
	c-1.3,1.6-2.3,3.4-2.8,5.4C502,929.1,480.4,983,529,996.9c0.2,0.1,0.4,0.1,0.6,0.1c0,92.4,0,184.8,0,277.3c0,0-0.1,0-0.1,0
	c0,0.1,0,0.1,0,0.2c-49.3,0-98.5,0-147.8,0c-49.7,0-129.9,13.4-132.7-58.7c-4.5-114,0-229.1,0-343.2c0-50.9,0-101.7,0-152.6
	c0-11.7,1.9-22.2,5.6-31.3c9.3-23.2,30.2-37.3,60.4-37.7c39-0.6,77.9-0.5,116.9-0.4c0.6,0.1,1.2,0.4,1.9,0.4c32.3,0,64.7,0,97,0
	c2.9,0,5.8,0,8.7,0c1.7,0,3.4,0,5.1,0c265.4,0,530.8,0,796.3,0c9.9,0,19.8,0,29.8,0c28.2,0,56.5,0,84.7,0c32.3,0,64.7,0,97,0
	c4.6,0,9.1,0,13.7,0c29.9,0,59.7,0,89.6,0c19.6,0,43.9-3,62.1,5.4c44.5,20.9,32.9,85.1,32.9,125.4c0,131.1,0,262.2,0,393.3
	C1750.7,1205.6,1751.2,1239.3,1732.4,1258.5z M529.7,621.4c-27,0-54,0-81.2,0.1c0-11.2,0-22.3,0-33.5c0-7.2,0-14.4,0-21.6
	c0.1-9.5,4.3-17.5,11.7-22.1c0.8-0.5,1.7-0.9,2.5-1.4c0.2-0.1,0.7-0.3,1-0.5c1.5-0.6,2.9-1,4.4-1.4c0.3,0,0.6-0.1,0.9-0.2
	c-0.2,0.1-0.5,0.1-0.7,0.2c-1.5,0.4-3,0.8-4.4,1.4c-0.4,0.2-0.9,0.4-1,0.5c-0.8,0.5-1.7,0.9-2.5,1.4c-7.4,4.6-11.6,12.6-11.7,22.1
	c0,7.2,0,14.4,0.2,21.5c0,11.2,0,22.3,0,33.5C475.8,621.4,502.8,621.4,529.7,621.4z M470.2,540.6c-0.3,0-0.5,0.1-0.8,0.1
	c0.2,0,0.4-0.1,0.6-0.1c0.1,0,0.3,0,0.4,0C470.3,540.6,470.3,540.6,470.2,540.6z M474.3,540.4c-0.1,0-0.2,0-0.3,0c0,0,0,0,0.1,0
	C474.2,540.4,474.2,540.4,474.3,540.4z M471,540.5c0,0-0.1,0-0.3,0c0,0,0,0,0.1,0c0.2,0,0.3,0,0.5,0
	C471.2,540.5,471.1,540.5,471,540.5z M541.1,968.9c0.4,0.1,0.9,0.1,1.4,0.1c-0.5,0-1.1,0-1.5-0.1c-21.3-5.3-11.5-34.5-5.2-54.3
	c0.1,0,0.1,0,0.2,0C529.5,934.4,519.7,963.6,541.1,968.9z M1455.3,968.9c0.3,0,0.6,0,1,0c0,0,0,0,0,0c-0.3,0-0.7,0-1.1,0
	c-265.4,0-530.8,0-796.2,0c-14.1,0-28.2,0-42.3,0c-24,0-48,0-72.1,0c0,0,0,0,0,0c24,0,48.1,0,72.2,0c14.1,0,28.2,0,42.3,0
	C924.5,968.9,1189.9,968.9,1455.3,968.9z M1549.3,555.4C1549.1,554.9,1549,554.6,1549.3,555.4
	C1549.4,555.5,1549.3,555.5,1549.3,555.4z M1529.9,540.6c-0.9-0.1-1.7-0.2-2.5-0.2c0.1,0,0.1,0,0.2,0c0.8,0,1.7,0.1,2.5,0.2
	c0.2,0.1,0.6,0.2,1,0.3c0.4,0.2,0.9,0.3,1.3,0.4c-0.5-0.1-1-0.3-1.5-0.4C1530.6,540.8,1530.1,540.7,1529.9,540.6z M1536,542.5
	c-0.5-0.2-1-0.4-1.5-0.5c0.6,0.2,1.1,0.3,1.7,0.5c0.3,0.2,2.4,1.3,2.8,1.5c3.1,1.9,3.1,2.1,6.4,5.4c0.4,0.4,0.3,0.3,0.5,0.5
	c0.6,0.7,1,1.4,1.5,2.2c0.4,0.6,1.6,2.8,1.9,3.3c0.1,0.4,0.3,0.9,0.3,0.9c0.3,0.9,0.6,1.8,0.9,2.8c0.2,0.9,0.4,1.8,0.6,2.7
	c0,0.2,0.1,0.4,0.1,0.7c0.3,5.9,0.1,11.8,0.1,17.6c0,13.6,0,27.2,0,40.8c-22.1,0.3-44.2,0.5-66.2,0.5c-5,0-9.9,0-14.9,0v0
	c4.9,0,9.8,0,14.7,0c22.1,0,44.1-0.3,66.2-0.5c0-13.6,0-27.2,0-40.8c0-5.9,0.2-11.8-0.1-17.6c0-0.3-0.1-0.5-0.1-0.7
	c-0.2-0.9-0.4-1.8-0.6-2.7c-0.3-0.9-0.6-1.9-0.9-2.8c0,0-0.3-0.6-0.4-1c0.1,0.2,0.2,0.3,0.1,0.1c-0.3-0.6-0.2-0.5-0.1-0.1
	c-0.4-0.7-1.4-2.6-1.8-3.2c-0.5-0.7-1-1.5-1.5-2.2c-0.2-0.2-0.1-0.1-0.5-0.5c-3.3-3.4-3.3-3.6-6.4-5.4
	C1538.4,543.8,1536.3,542.7,1536,542.5z M559.7,998.9c0,20.3,0,40.5,0,60.8c-0.1,0-0.2,0-0.3,0c0-20.3,0-40.5,0-60.8
	c2.7-0.1,5.4-0.2,7.9-0.2c64.8,0,129.5,0,194.3,0c186.1,0,372.3,0,558.4,0c7,0,13.9,0,20.9,0c33.2,0,66.4,0,99.6,0v0
	c-33.1,0-66.2,0-99.3,0c-7,0-13.9,0-20.9,0c-186.1,0-372.3,0-558.4,0c-64.8,0-129.5,0-194.3,0C565.1,998.7,562.4,998.8,559.7,998.9z
	 M559.6,1089.4c0,16.8,0,33.7,0,50.6c-0.1,0-0.2,0-0.3,0c0-16.8,0-33.7,0-50.6C559.4,1089.4,559.5,1089.4,559.6,1089.4z
	 M1335.4,1169.7c-0.1,0-0.2,0-0.3,0c19.1,0,19.1-29.7,0-29.7c0.1,0,0.2,0,0.3,0C1354.5,1140,1354.5,1169.7,1335.4,1169.7z
	 M1302.8,1240.2c45.9,22.1,91.8,44.2,137.7,66.3c0,0,0,0,0,0c-46-22.2-92-44.3-138.3-66.4c-12.3-5.9-31.1-19.7-46.1-18.2
	C1271.1,1220.1,1290.2,1234.1,1302.8,1240.2z M1144.5,1089.4c-0.1,0-0.2,0-0.3,0c19.1,0,19.1-29.7,0-29.7c0.1,0,0.2,0,0.3,0
	C1163.6,1059.7,1163.6,1089.4,1144.5,1089.4z M598.7,1237.8c106.6,66.2,213.2,132.4,319.8,198.7c0,0-0.1,0.1-0.1,0.1
	c-106.6-66.2-213.3-132.5-320-198.8c-13-8.1-26.1-16.2-39.1-24.3c0-14.6,0-29.2,0-43.8c0.1,0,0.2,0,0.3,0c0,14.6,0,29.2,0,43.8
	C572.6,1221.6,585.7,1229.7,598.7,1237.8z M715.7,1502.7c-13.3-6.3-28.4-17.3-43.2-17C687.3,1485.4,702.4,1496.3,715.7,1502.7z
	 M890.9,1454.3C890.9,1454.3,890.9,1454.3,890.9,1454.3C890.9,1454.3,890.9,1454.3,890.9,1454.3
	C890.9,1454.3,890.9,1454.3,890.9,1454.3C890.9,1454.3,890.9,1454.3,890.9,1454.3z M864.7,1438c-101.8-63.2-203.5-126.5-305.3-189.7
	l0,0C661.2,1311.5,762.9,1374.8,864.7,1438C864.7,1438,864.7,1438,864.7,1438C864.7,1438,864.7,1438,864.7,1438z M664.3,1487.1
	C664.3,1487.1,664.3,1487.1,664.3,1487.1C664.3,1487.1,664.3,1487.1,664.3,1487.1c-0.1,0-0.2,0.1-0.2,0.1
	C664.1,1487.2,664.2,1487.1,664.3,1487.1z M559.4,1544.1L559.4,1544.1c12.3-6.7,24.7-13.4,37-20.1c0,0,0,0,0,0c0,0,0,0,0,0
	C584.1,1530.7,571.7,1537.4,559.4,1544.1z M876.6,1463.5C876.6,1463.5,876.6,1463.5,876.6,1463.5
	C876.6,1463.5,876.6,1463.5,876.6,1463.5c-34.4,22.1-68.9,44.2-103.4,66.3h0C807.7,1507.7,842.2,1485.6,876.6,1463.5z M659.1,1606.6
	c260.4,0,520.9,0,781.4-0.1c0,0.1,0,0.1,0,0.2c-260.5,0-520.9,0-781.4,0c-33.2,0-66.4,0-99.6,0c0,0,0-0.1,0-0.1
	C592.7,1606.6,625.9,1606.6,659.1,1606.6z M381.8,1274.3c49.3,0,98.4,0,147.7,0c0,0.1,0,0.1,0,0.2c-49.3,0-98.5,0-147.8,0
	c-49.7,0-129.9,13.4-132.7-58.7c-4.5-114,0-229.1,0-343.2c0-50.9,0-101.7,0-152.6c0-11.7,1.9-22.2,5.6-31.3
	c-3.6,9.1-5.5,19.5-5.5,31.1c0,50.9,0,101.8,0,152.6c0,114.1-4.5,229.2,0,343.2C251.9,1287.7,332.1,1274.3,381.8,1274.3z
	 M1489.2,986.9c21.9-20.5,6-62.7-3-91c-2-6.3-7.6-10.9-14.3-10.9c-276.3,0-552.6,0-828.9,0c-39.4,0-78.8,0-118.2,0
	c-4.3,0-8.5,2.1-11.3,5.3c2.8-3.4,7.1-5.5,11.5-5.5c39.4,0,78.8,0,118.2,0c276.3,0,552.6,0,828.9,0c6.7,0,12.3,4.6,14.3,10.9
	C1495.4,924.2,1511.4,966.5,1489.2,986.9z M1732.4,1258.5c-9,9.4-22.6,15.5-42.9,16.1c-60.5,1.8-121.3,0-181.8,0
	c-12.6,0-25.2,0-37.8,0c0-70.1,0-140.1,0-210.2c0-22.6,0-45.2,0-67.7c0.1,0,0.1,0,0.2-0.1c0,22.6,0,45,0,67.6
	c0,70.1,0,140.1,0,210.2c12.6,0,25.2,0,37.8,0c60.5,0,121.3,1.8,181.8,0C1709.9,1273.8,1723.4,1267.8,1732.4,1258.5z M1470,587.9
	c0-7.2-0.1-14.4,0-21.6c0.2-9.4,4.4-17.4,11.8-22c0.8-0.5,1.7-0.9,2.5-1.4c0.1-0.1,0.6-0.3,0.9-0.5c1.4-0.6,2.9-1,4.3-1.4
	c0.6-0.2,1.2-0.3,1.9-0.4c0.3-0.1,0.7-0.1,0.8-0.1c1.1-0.1,2.2-0.1,3.3-0.1c3.6,0,7.2,0,10.8,0c5.1,0,10.1,0,15.2,0c1.3,0,2.7,0,4,0
	c0.6,0,1.2,0,1.9,0c0,0,0,0,0,0c-0.5,0-1.1,0-1.7,0c-1.3,0-2.7,0-4,0c-5.1,0-10.2,0-15.2,0c-3.6,0-7.2,0-10.8,0
	c-1.1,0-2.2,0.1-3.3,0.1c-0.2,0-0.5,0.1-0.8,0.1c-0.6,0.1-1.3,0.3-1.9,0.4c-1.5,0.4-2.9,0.8-4.3,1.4c-0.3,0.2-0.8,0.4-0.9,0.5
	c-0.8,0.5-1.7,0.9-2.5,1.4c-7.4,4.6-11.6,12.6-11.7,22.1c-0.1,7.2,0,14.4,0,21.6c-0.1,11.1-0.1,22.3-0.1,33.4c-0.1,0-0.1,0-0.2,0
	C1470,610.2,1470,599.1,1470,587.9z M1534.5,542c-0.7-0.2-1.4-0.4-2.1-0.6C1533.1,541.5,1533.8,541.7,1534.5,542z M1549,555.3
	c-0.1-0.3-0.2-0.5,0.1,0.1C1549.2,555.6,1549.1,555.5,1549,555.3z M1491.2,540.7C1490.9,540.8,1490.8,540.8,1491.2,540.7
	L1491.2,540.7z M1340.8,393.4c-260.5,0-520.9,0-781.4,0v0C819.9,393.4,1080.4,393.4,1340.8,393.4c33.2,0,66.4,0,99.6,0v0
	C1407.2,393.4,1374,393.4,1340.8,393.4z M474,540.4c-0.9,0-1.8,0.1-2.8,0.1C472.2,540.4,473.1,540.4,474,540.4z M508.5,540.6
	c-0.8-0.1-1.6-0.2-2.5-0.2c0.1,0,0.1,0,0.2,0c0.8,0,1.6,0.1,2.5,0.2c0.3,0.1,0.7,0.2,1,0.3c1.7,0.5,3.4,0.9,5.1,1.6
	c0.3,0.2,2.4,1.3,2.8,1.5c3.1,1.8,3.1,2,6.4,5.4c0.4,0.4,0.3,0.3,0.5,0.5c0.5,0.7,1,1.5,1.5,2.2c0.4,0.6,1.4,2.5,1.8,3.2
	c0.1,0.4,0.4,1,0.4,1c0.3,0.9,0.6,1.9,0.9,2.8c0.2,0.9,0.4,1.8,0.6,2.7c0,0.2,0.1,0.4,0.1,0.7c0.3,5.8,0.1,11.7,0.1,17.6
	c0,13.8,0,27.5,0,41.3c-0.1,0-0.1,0-0.2,0c0-13.8,0-27.5,0-41.3c0-5.8,0.2-11.7-0.1-17.6c0-0.3-0.1-0.5-0.1-0.7
	c-0.2-0.9-0.4-1.8-0.6-2.7c-0.3-1-0.6-1.9-0.9-2.8c0,0-0.2-0.5-0.3-0.9c0.1,0.1,0.1,0.1,0,0c-0.3-0.8-0.2-0.5,0,0
	c-0.3-0.5-1.5-2.7-1.9-3.3c-0.5-0.8-1-1.5-1.5-2.2c-0.2-0.2-0.1-0.1-0.5-0.5c-3.3-3.3-3.3-3.5-6.4-5.4c-0.4-0.2-2.5-1.3-2.8-1.5
	c-1.7-0.6-3.4-1-5.1-1.6C509.1,540.8,508.7,540.7,508.5,540.6z M527.8,555.3c-0.1-0.3-0.2-0.5,0.1,0.1
	C528,555.6,527.9,555.5,527.8,555.3z M470.7,540.5c-0.1,0-0.2,0-0.4,0C470.5,540.5,470.6,540.5,470.7,540.5z M469.4,540.7
	c-0.1,0-0.3,0.1-0.4,0.1C469.1,540.8,469.3,540.8,469.4,540.7z M527.7,555.4C527.5,554.9,527.4,554.6,527.7,555.4
	C527.8,555.5,527.7,555.5,527.7,555.4z M544.5,968.9C544.5,968.9,544.6,968.9,544.5,968.9c-0.1,0-0.2,0.1-0.4,0.1c-0.5,0-1,0-1.6,0
	c0.5,0,1,0,1.5,0C544.2,969,544.4,968.9,544.5,968.9z M1456.4,968.9C1456.4,968.9,1456.3,968.9,1456.4,968.9
	c23.8-4.8,12.8-35.3,5.3-54.3c-36,0-71.9,0-107.9,0c-272.6,0-545.2,0-817.8,0v0c272.7,0,545.3,0,817.9,0c36,0,71.9,0,107.9,0
	C1469.3,933.7,1480.2,964.1,1456.4,968.9z M1440.5,998.7c0.1,0,0.2,0,0.3,0c0,102.6,0,205.2,0,307.9c-0.1,0-0.2-0.1-0.3-0.1
	C1440.5,1203.9,1440.5,1101.3,1440.5,998.7z M1251.3,1222.9c1.5-0.6,3.1-0.9,4.8-1c-1.5,0.2-3,0.5-4.5,1
	c-9.3,3.4-18.8,12.1-27.1,17.4c-101.9,65.4-203.9,130.8-305.8,196.3c-0.1,0-0.1-0.1-0.2-0.1c102-65.4,203.8-130.7,305.7-196.2
	C1232.5,1235,1242,1226.3,1251.3,1222.9z M596.4,1524c21.5-11.8,44.4-28.7,67.6-36.8C640.8,1495.3,618,1512.2,596.4,1524z
	 M876.6,1463.5c4.8-3.1,9.6-6.2,14.2-9.2C886.1,1457.4,881.4,1460.4,876.6,1463.5z M890.9,1454.3c-8.7-5.4-17.5-10.8-26.2-16.3
	C873.4,1443.4,882.2,1448.8,890.9,1454.3z M672.5,1485.7c-2.8,0.1-5.5,0.5-8.2,1.4C667,1486.2,669.8,1485.7,672.5,1485.7z
	 M559.4,1248.3c0,98.6,0,197.2,0,295.8h0C559.4,1445.5,559.4,1346.9,559.4,1248.3L559.4,1248.3z M716,1502.8c19.1,9,38.2,18,57.2,27
	l0,0C754.1,1520.8,735.1,1511.8,716,1502.8c-0.1,0-0.2-0.1-0.3-0.1C715.8,1502.7,715.9,1502.8,716,1502.8z M1260.3,1252.5
	c60.1,28.9,120.1,57.8,180.2,86.7c0,0,0,0.1,0,0.1c-60.1-28.9-120.2-57.8-180.2-86.7c-26.9,17.3-53.9,34.6-80.8,51.9
	c-106.6,68.4-213.3,136.8-319.9,205.3c-23.8,15.3-50.7,39.7-77.4,49.6c-15.6,5.8-36.6-9.9-50.3-16.4c-19.3-9.1-38.5-18.2-57.8-27.3
	c-38.2,20.8-76.4,41.5-114.6,62.3c0,0,0-0.1,0-0.1c38.2-20.8,76.4-41.5,114.6-62.3c19.3,9.1,38.5,18.2,57.8,27.3
	c13.7,6.5,34.7,22.2,50.3,16.4c26.7-9.9,53.6-34.4,77.4-49.6c106.6-68.4,213.3-136.8,319.9-205.3
	C1206.4,1287.1,1233.4,1269.8,1260.3,1252.5z M1750.7,781.8c0,131.1,0,262.2,0,393.3c0,30.5,0.5,64.2-18.3,83.4
	c18.5-19.3,18.1-52.8,18.1-83.2c0-131.1,0-262.2,0-393.3c0.2-40.5,11.8-104.7-32.8-125.4c-18.2-8.5-42.5-5.4-62.1-5.4
	c-29.9,0-59.7,0-89.6,0c-4.6,0-9.1,0-13.7,0c-32.3,0-64.7,0-97,0c-28.2,0-56.5,0-84.7,0c-9.9,0-19.8,0-29.8,0
	c-265.4,0-530.8,0-796.3,0c-1.7,0-3.4,0-5.1,0c-2.9,0-5.8,0-8.7,0c-32.4,0-64.7,0-97,0c-0.7,0-1.2-0.3-1.9-0.4
	c-39-0.2-77.9-0.2-116.9,0.4c-30.1,0.4-50.9,14.4-60.3,37.5c9.3-23.2,30.2-37.3,60.4-37.7c39-0.6,77.9-0.5,116.9-0.4
	c0.6,0.1,1.2,0.4,1.9,0.4c32.3,0,64.7,0,97,0c2.9,0,5.8,0,8.7,0c1.7,0,3.4,0,5.1,0c265.4,0,530.8,0,796.3,0c9.9,0,19.8,0,29.8,0
	c28.2,0,56.5,0,84.7,0c32.3,0,64.7,0,97,0c4.6,0,9.1,0,13.7,0c29.9,0,59.7,0,89.6,0c19.6,0,43.9-3,62.1,5.4
	C1762.3,677.3,1750.7,741.5,1750.7,781.8z M1489.2,986.9c-4.6,4.3-10.8,7.6-19.1,9.7c0,0,0-0.1,0-0.1
	C1478.4,994.5,1484.6,991.2,1489.2,986.9z M510.5,895.9c0.5-2.1,1.6-4,3-5.6c-1.3,1.6-2.3,3.4-2.8,5.4
	C502,929.1,480.4,983,529,996.9c0.2,0.1,0.4,0.1,0.6,0.1c0,92.4,0,184.8,0,277.3c0,0-0.1,0-0.1,0c0-92.3,0-184.7,0-277.1
	c-0.2-0.1-0.4-0.1-0.6-0.1C480.2,983.2,501.8,929.3,510.5,895.9z M557,727.2c-4.9,14.1-17.9,24-34.1,24.5c-19.1,0-38.2,0-57.3,0
	c-9.1,0-17.8,0.2-26.3-3.8c-15.8-7.6-21.5-24.6-19.9-41c0.8-9,4.8-16.7,10.7-22.5c-5.8,5.8-9.7,13.5-10.6,22.4
	c-1.6,16.4,4.1,33.4,19.9,41c8.5,4.1,17.2,3.8,26.3,3.8c19.1,0,38.2,0,57.3,0C539,751.1,552,741.2,557,727.2z M575.5,702
	c0-0.1,0-0.2,0.1-0.3C575.5,701.8,575.5,701.9,575.5,702z M714.3,708.6c0,0.4,0,0.8,0.1,1.1C714.3,709.3,714.3,708.9,714.3,708.6z
	 M712.8,699.5c-0.1-0.3-0.2-0.6-0.2-0.8C712.6,698.9,712.7,699.2,712.8,699.5z M575.9,700.6c0.1-0.2,0.1-0.4,0.2-0.6
	C576,700.2,575.9,700.4,575.9,700.6z M576.3,698.9c0.1-0.2,0.1-0.4,0.2-0.6C576.5,698.6,576.4,698.7,576.3,698.9z M714.3,708.6
	c-0.2-2.9-0.6-5.8-1.4-8.6C713.6,702.7,714.1,705.6,714.3,708.6z M714.4,713.1c0,0.5,0,1.1,0,1.6c-0.2,20.4-15.7,36.3-36.2,37
	c-19.1,0-38.2,0-57.3,0c-9.1,0-17.8,0.2-26.3-3.8c-14.3-6.9-20.3-21.5-20.2-36.4c-0.2,14.9,5.9,29.4,20.2,36.3
	c8.5,4.1,17.2,3.8,26.3,3.8c19.1,0,38.2,0,57.3,0c20.5-0.7,36-16.6,36.2-37.1C714.4,714,714.4,713.5,714.4,713.1z M714.4,711.6
	c0,0.3,0,0.6,0,0.9C714.4,712.2,714.4,711.9,714.4,711.6z M714.3,710.1c0,0.3,0,0.6,0,0.8C714.4,710.7,714.4,710.4,714.3,710.1z
	 M577.1,696.8C577.1,696.8,577.1,696.8,577.1,696.8C577.1,696.8,577.1,696.8,577.1,696.8z M576.5,698.4c0.2-0.5,0.4-1,0.6-1.5
	C576.9,697.4,576.7,697.9,576.5,698.4z M712.8,699.5c0,0.1,0.1,0.3,0.1,0.4C712.9,699.8,712.8,699.6,712.8,699.5z M714.3,709.7
	c0,0.1,0,0.3,0,0.4C714.3,710,714.3,709.8,714.3,709.7z M714.3,708.6C714.3,708.6,714.3,708.6,714.3,708.6
	C714.3,708.6,714.3,708.6,714.3,708.6z M575.6,701.7c0.1-0.4,0.2-0.7,0.3-1.1C575.8,700.9,575.7,701.3,575.6,701.7z M576,700
	c0.1-0.4,0.2-0.7,0.3-1.1C576.2,699.3,576.1,699.6,576,700z M714.4,711.6c0-0.2,0-0.4,0-0.7C714.4,711.2,714.4,711.4,714.4,711.6z
	 M577.1,696.8c5.4-13.7,18.5-22.9,34-23.2c7-0.2,14,0,21,0c10.8,0,21.7,0,32.5,0c7.2,0,14.9-0.6,22,1c9.5,2.2,18.1,8.8,23,17.1
	c1.3,2.3,2.2,4.6,2.9,7c-0.7-2.3-1.7-4.6-2.9-6.8c-4.9-8.4-13.5-15.1-23-17.2c-7.1-1.6-14.8-1-22-1c-10.8,0-21.7,0-32.5,0
	c-7,0-14-0.2-21,0C595.7,674,582.5,683.2,577.1,696.8z M574.7,706.9c-0.1,1.5-0.2,3.1-0.3,4.6C574.5,709.9,574.5,708.4,574.7,706.9
	c0.2-1.7,0.4-3.3,0.8-4.9C575.1,703.6,574.9,705.2,574.7,706.9z M714.4,713.1c0-0.2,0-0.4,0-0.6
	C714.4,712.7,714.4,712.9,714.4,713.1z M594.6,747.8c8.5,4.1,17.2,3.8,26.3,3.8c19.1,0,38.2,0,57.3,0c20.5-0.7,36-16.6,36.2-37.1
	c0-0.5,0-1,0-1.4c0-0.2,0-0.4,0-0.6c0-0.3,0-0.6,0-0.9c0-0.2,0-0.4,0-0.7c0-0.3,0-0.6,0-0.8c0-0.1,0-0.3,0-0.4c0-0.4,0-0.8-0.1-1.1
	c0,0,0,0,0,0c-0.2-2.9-0.6-5.8-1.4-8.6c0-0.1-0.1-0.3-0.1-0.4c-0.1-0.3-0.2-0.6-0.2-0.8c-0.7-2.3-1.7-4.6-2.9-6.8
	c-4.9-8.4-13.5-15.1-23-17.2c-7.1-1.6-14.8-1-22-1c-10.8,0-21.7,0-32.5,0c-7,0-14-0.2-21,0c-15.4,0.3-28.6,9.5-34,23.1c0,0,0,0,0,0
	c-0.2,0.5-0.4,1-0.6,1.5c-0.1,0.2-0.1,0.4-0.2,0.6c-0.1,0.4-0.2,0.7-0.3,1.1c-0.1,0.2-0.1,0.4-0.2,0.6c-0.1,0.4-0.2,0.7-0.3,1.1
	c0,0.1,0,0.2-0.1,0.3c-0.4,1.6-0.6,3.2-0.8,4.9c-0.1,1.5-0.2,3.1-0.3,4.6C574.3,726.4,580.3,740.9,594.6,747.8z M605.8,720
	C605.9,720.1,605.9,720.1,605.8,720C605.9,720.1,605.9,720.1,605.8,720z M609.7,703.3c-0.5,0-0.7,0-0.6,0
	C609,703.3,609.2,703.3,609.7,703.3z M604.1,709.2C604.1,709.1,604.1,709.2,604.1,709.2c0.1-0.7,0.3-1.3,0.5-1.9c0-0.1,0,0,0-0.1
	c0,0,0.1-0.1,0.1-0.1c0,0,0,0,0,0c0-0.1,0-0.1,0.1-0.2c0,0,0,0,0,0c0.2-0.4,0.5-0.8,0.8-1.2c0,0,0.1-0.1,0.1-0.1c0,0,0,0,0,0
	c0,0,0,0,0,0c0.2-0.2,0.5-0.5,0.6-0.6c0,0,0,0,0,0c0,0,0.1-0.1,0.1-0.1c0.4-0.3,0.8-0.6,1.2-0.8c0,0,0,0,0,0
	c0.1-0.1,0.1-0.1,0.2-0.1c0,0,0,0,0,0c0,0,0,0,0.1-0.1c0.1,0,0,0,0.1,0c0.6-0.2,1.2-0.4,1.9-0.5c0.2,0,0.3,0,0.7,0
	c0.1,0,0.1,0,0.2,0c0.6,0,1.2,0,1.8,0c2.8,0,5.7,0,8.5,0c17,0,33.9,0,50.9,0c2,0,3.9,0,5.9,0c0.3,0,0.8,0.1,1.2,0.1
	c-0.1,0.1,1.4,0.7,1.9,0.8c0,0,0,0,0,0c-0.2-0.1-0.4-0.2-0.5-0.3c0.3,0.1,0.4,0.2,0.5,0.3c0,0,0,0,0,0c0.3,0.1,0.2,0-0.5-0.4
	c0.6,0.3,1.3,0.7,1.8,1.1c0.1,0,0.1,0.1,0.4,0.4s0.3,0.2,0.3,0.2c0.5,0.6,0.9,1.2,1.2,1.9c-0.4-0.7-0.4-0.7-0.4-0.4
	c0.1,0.1,0.2,0.2,0.3,0.5c-0.1-0.1-0.2-0.3-0.3-0.4c0.1,0.5,0.5,1.7,0.7,1.9c0,0,0-0.1,0-0.1c0-0.2,0-0.3,0-0.5c0,0.2,0,0.3,0,0.5
	c0,0,0,0.1,0,0.1c0,0,0,0,0.1,0c0-0.2,0-0.4,0-0.7c0,0.4,0,0.6,0,0.7c0,0.7,0,1.4,0,2.1c0,1.1,0,2.3,0,3.4c0,0.6-0.1,2-0.1,2.1
	c-0.1,0.5-0.2,1-0.4,1.5c0,0.1,0,0,0,0.1c-0.1,0.1,0,0.1-0.2,0.3c-0.3,0.5-0.6,0.9-0.9,1.4c0,0-0.1,0.1-0.1,0.1c0,0,0,0,0,0
	c0,0,0,0,0,0c-0.1,0.1-0.2,0.2-0.4,0.3c-0.1,0.1-0.2,0.2-0.3,0.2c-0.5,0.3-1.2,0.6-1.4,0.8c0.3-0.1,0.5-0.1,0.7-0.2
	c-0.6,0.2-0.8,0.3-0.8,0.2c-0.1,0.1-0.1,0.1,0,0.1c0.2-0.1,0.5-0.1,0.7-0.2c-0.4,0.2-0.6,0.2-0.7,0.2c-0.5,0.2-0.9,0.3-1.4,0.4
	c-0.3,0.1-0.2,0.1-0.3,0.1c-0.3,0-0.3,0-1,0c-13.6,0-27.2,0-40.8,0c-7.4-0.1-15-0.1-22.6-0.1c-1.3,0-2.6,0-3.9,0c-0.1,0-0.6,0-1,0
	c-0.1,0,0.1,0-0.3-0.1c-0.5-0.1-1.1-0.3-1.6-0.5c-0.1-0.1,0.1,0-0.2-0.2c-0.2-0.1-0.9-0.6-1.4-0.9c0.2,0.1-0.1-0.3-0.4-0.5
	c0.1,0.2,0.1,0.2,0.1,0.2c0-0.1-0.1-0.1-0.1-0.2c-0.1-0.1-0.2-0.2-0.3-0.2c0,0,0,0,0,0c0.1,0.2,0.2,0.4,0.3,0.5
	c-0.1,0-0.1,0-0.3-0.5c-0.2-0.4-0.5-0.9-0.7-1.1c0-0.3-0.4-1.7-0.6-2c0-0.6-0.1-1.5-0.1-1.8C604.1,712.9,604.1,711,604.1,709.2z
	 M684.6,709.1c0-0.2,0-0.4,0-0.7C684.6,708.8,684.6,709,684.6,709.1z M682.5,720.5c0.1-0.1,0.3-0.2,0.4-0.3
	C682.7,720.2,682.6,720.4,682.5,720.5z M680.7,721.5C680.7,721.5,680.7,721.5,680.7,721.5c0.3-0.1,0.5-0.2,0.8-0.2
	C680.9,721.5,680.7,721.6,680.7,721.5z M605.8,719.8C605.8,719.8,605.8,719.8,605.8,719.8c0.1,0.2,0.1,0.2,0.1,0.2
	C605.9,719.9,605.8,719.9,605.8,719.8z M605.7,705.6C605.7,705.6,605.7,705.6,605.7,705.6C605.7,705.6,605.7,705.6,605.7,705.6
	C605.7,705.6,605.7,705.6,605.7,705.6z M607.5,704.2c-0.4,0.3-0.8,0.5-1.2,0.8c0,0,0.1-0.1,0.1-0.1
	C606.8,704.6,607.2,704.3,607.5,704.2c0.1-0.1,0.1-0.1,0.1-0.1C607.6,704.1,607.5,704.2,607.5,704.2z M684.5,709.1
	C684.6,709.1,684.6,709.1,684.5,709.1c0.1,0.7,0.1,1.4,0.1,2.1c0,1.1,0,2.3,0,3.4c0,0.6-0.1,2-0.1,2.1c-0.1,0.5-0.2,1-0.4,1.5
	c0,0.1,0,0,0,0.1c-0.1,0.1,0,0.1-0.2,0.3c-0.3,0.5-0.6,0.9-0.9,1.4c0,0-0.1,0.1-0.1,0.1c0.3-0.5,0.6-0.9,0.9-1.4
	c0.1-0.3,0.1-0.2,0.2-0.3c0-0.1,0,0,0-0.1c0.2-0.5,0.3-1,0.4-1.5c-0.1-0.1,0.1-1.5,0.1-2.1c0-1.1,0-2.3,0-3.4
	C684.5,710.6,684.6,709.8,684.5,709.1z M683.8,707.1C683.8,707.1,683.8,707.1,683.8,707.1c0.1,0.6,0.5,1.8,0.7,2
	C684.4,709.9,683.3,706.6,683.8,707.1z M682.2,705.1c-0.4-0.3-0.8-0.5-1.2-0.8c0.3,0.1,0.2,0-0.5-0.4c0.6,0.3,1.3,0.7,1.8,1.1
	c0.1,0,0.1,0.1,0.4,0.4s0.3,0.2,0.3,0.2c0.5,0.6,0.9,1.2,1.2,1.9c-0.4-0.7-0.4-0.7-0.4-0.4c0,0,0,0,0-0.1c-0.3-0.5-0.6-0.9-0.9-1.4
	c0,0,0.1,0.2-0.3-0.2C682.3,705.2,682.2,705.2,682.2,705.1z M607.9,704C607.8,704,607.9,704,607.9,704
	C607.8,704,607.8,704,607.9,704C608,703.9,607.9,703.9,607.9,704c0.7-0.3,1.3-0.5,2-0.6c0.2,0,0.3,0,0.7,0c0.1,0,0.1,0,0.2,0
	c0.6,0,1.2,0,1.8,0c2.8,0,5.7,0,8.5,0c17,0,33.9,0,50.9,0c2,0,3.9,0,5.9,0c0.3,0,0.8,0.1,1.2,0.1c-0.1,0.1,1.4,0.7,1.9,0.8
	c0.6,0.5-2-0.5-2-0.7c-0.4-0.1-0.9-0.1-1.2-0.1c-2,0-3.9,0-5.9,0c-17,0-33.9,0-50.9,0c-2.8,0-5.7,0-8.5,0c-0.6,0-1.2,0-1.8,0
	c-0.1,0-0.1,0-0.2,0c-0.3,0-0.5,0-0.7,0C609.2,703.6,608.5,703.8,607.9,704z M604.7,707.1C604.7,707.1,604.7,707.1,604.7,707.1
	c0-0.1,0-0.1,0.1-0.2C604.7,707.1,604.7,707.1,604.7,707.1z M684.5,709c0-0.2,0-0.3,0-0.5C684.5,708.7,684.5,708.8,684.5,709z
	 M605.7,705.6c0.2-0.2,0.5-0.5,0.6-0.6c0,0,0,0,0,0C606.2,705.2,605.8,705.6,605.7,705.6z M683.8,707.2
	C683.8,707.1,683.8,707.1,683.8,707.2c0.1,0.1,0.2,0.2,0.3,0.4C684,707.5,683.9,707.3,683.8,707.2z M680.4,704
	c0.3,0.1,0.4,0.2,0.5,0.3C680.8,704.2,680.6,704.1,680.4,704z M681,704.3C681,704.3,681,704.3,681,704.3
	C680.9,704.3,680.9,704.3,681,704.3C680.9,704.3,681,704.3,681,704.3z M604.9,706.8c0,0-0.1,0.1-0.1,0.1c0,0,0,0,0,0
	c0.2-0.4,0.5-0.8,0.8-1.2c0,0,0.1-0.1,0.1-0.1C605.4,706,605.2,706.4,604.9,706.8z M682.3,720.6c0.1,0,0.1-0.1,0.2-0.1
	C682.4,720.5,682.3,720.6,682.3,720.6c-0.6,0.4-1.3,0.7-1.5,0.9c0,0,0,0,0,0C680.8,721.4,681.7,720.9,682.3,720.6z M681.4,721.4
	c-0.4,0.2-0.6,0.2-0.7,0.2C680.9,721.6,681.2,721.5,681.4,721.4z M605.5,719.6c0.1,0.2,0.2,0.4,0.3,0.5
	C605.7,720.1,605.7,720.1,605.5,719.6z M684.5,709.1C684.5,709.1,684.5,709.1,684.5,709.1c0,0,0-0.1,0-0.1
	C684.5,709,684.5,709,684.5,709.1z M680.7,721.5C680.7,721.5,680.7,721.5,680.7,721.5c-0.1,0.1-0.1,0.1,0,0.1
	c-0.5,0.2-0.9,0.3-1.4,0.4c-0.3,0.1-0.2,0.1-0.3,0.1c-0.3,0-0.3,0-1,0c-13.6,0-27.2,0-40.8,0c-7.4-0.1-15-0.1-22.6-0.1
	c-1.3,0-2.6,0-3.9,0c-0.1,0-0.6,0-1,0c-0.1,0,0.1,0-0.3-0.1c-0.5-0.1-1.1-0.3-1.6-0.5c-0.1-0.1,0.1,0-0.2-0.2
	c-0.2-0.1-0.9-0.6-1.4-0.9c0.2,0.1-0.1-0.3-0.4-0.5c0-0.1-0.1-0.1-0.1-0.2c0.2,0.2,0.8,0.8,0.7,0.6c0.5,0.3,1.2,0.8,1.4,0.9
	c0.3,0.2,0.2,0.1,0.2,0.2c0.5,0.2,1.1,0.3,1.6,0.5c0.4,0.1,0.2,0.1,0.3,0.1c0.4,0,0.9,0,1,0c1.3,0,2.6,0,3.9,0c7.6,0,15.1,0,22.7,0
	c13.6,0,27.2,0,40.8,0c0.6,0.1,0.6,0.1,0.9,0.1c0.1,0,0,0,0.3-0.1C679.8,721.8,680.3,721.7,680.7,721.5z M682.9,720.1
	C682.9,720.1,682.9,720.1,682.9,720.1C682.9,720.1,682.9,720.1,682.9,720.1C682.9,720.1,682.9,720.1,682.9,720.1z M604.2,716.5
	c0-0.6-0.1-1.5-0.1-1.8c0-1.8,0-3.7,0-5.5c0-0.1,0,0,0-0.1c0.1-0.6,0.3-1.2,0.5-1.8c0-0.1,0,0,0-0.1c0,0,0.1-0.1,0.1-0.1
	c0,0,0,0,0,0.1c-0.2,0.6-0.4,1.2-0.5,1.8c0,0.1,0,0,0,0.1c-0.1,1.8,0,3.7,0,5.5c0,0.3,0.1,1.2,0.1,1.8c0.2,0.4,0.6,1.7,0.6,2
	c0.2,0.4,0.6,1,0.9,1.4c-0.1-0.1-0.2-0.2-0.3-0.2c0,0,0,0,0,0c-0.2-0.4-0.5-0.9-0.7-1.1C604.8,718.2,604.4,716.8,604.2,716.5z
	 M607.8,704c0,0-0.1,0-0.2,0.1C607.7,704,607.7,704,607.8,704C607.8,704,607.8,704,607.8,704z M605.6,719.5
	C605.6,719.5,605.6,719.5,605.6,719.5C605.6,719.5,605.6,719.5,605.6,719.5z M680.7,721.5C680.7,721.5,680.7,721.5,680.7,721.5
	C680.7,721.5,680.7,721.5,680.7,721.5C680.7,721.5,680.7,721.5,680.7,721.5z M683.8,707.1C683.8,707.1,683.8,707.1,683.8,707.1
	C683.8,707.1,683.8,707.1,683.8,707.1C683.8,707.1,683.8,707.1,683.8,707.1z M554.4,691.7c4,7.1,4.9,14.8,4.8,22.8
	c0,4.5-0.8,8.8-2.2,12.7c1.4-3.9,2.1-8.1,2.1-12.5c0.1-8-0.7-15.8-4.8-22.8c-4.9-8.4-13.5-15.1-23-17.2c-7.1-1.6-14.8-1-22-1
	c-10.8,0-21.6,0-32.5,0c-7,0-14-0.2-21,0c-10,0.2-19.1,4.2-25.7,10.7c6.6-6.6,15.7-10.6,25.8-10.8c7-0.2,14,0,21,0
	c10.8,0,21.6,0,32.5,0c7.2,0,14.9-0.6,22,1C540.9,676.8,549.5,683.4,554.4,691.7z M554.3,691.9c-4.9-8.4-13.5-15.1-23-17.2
	c-7.1-1.6-14.8-1-22-1c-10.8,0-21.6,0-32.5,0c-7,0-14-0.2-21,0c-10,0.2-19.1,4.2-25.7,10.7c-5.8,5.8-9.7,13.5-10.6,22.4
	c-1.6,16.4,4.1,33.4,19.9,41c8.5,4.1,17.2,3.8,26.3,3.8c19.1,0,38.2,0,57.3,0c16-0.5,29-10.4,34-24.4c1.4-3.9,2.1-8.1,2.1-12.5
	C559.2,706.7,558.4,698.9,554.3,691.9z M454.4,703.3c-0.3,0-0.5,0-0.5,0C453.9,703.3,454.1,703.3,454.4,703.3z M450.6,720
	C450.7,720.1,450.6,720.1,450.6,720L450.6,720z M529.4,714.6c0,0.6-0.1,2-0.1,2.1c-0.1,0.5-0.2,1-0.4,1.5c0,0.1,0,0,0,0.1
	s0,0.1-0.2,0.3c-0.3,0.5-0.6,0.9-0.9,1.4c0,0-0.1,0.1-0.1,0.1c0,0,0,0,0,0c0,0,0,0,0,0c-0.1,0.1-0.2,0.2-0.4,0.3
	c-0.1,0.1-0.2,0.2-0.3,0.2c-0.4,0.2-1,0.6-1.4,0.8c0.2-0.1,0.4-0.1,0.7-0.2c-0.5,0.2-0.7,0.3-0.7,0.2c-0.1,0.1-0.1,0.1-0.1,0.1
	c0.2-0.1,0.5-0.2,0.7-0.3c-0.4,0.2-0.6,0.2-0.7,0.3c-0.5,0.2-0.9,0.3-1.4,0.3c-0.3,0.1-0.2,0.1-0.3,0.1c-0.3,0-0.3,0-1,0
	c-13.6,0-27.2,0-40.8,0c-7.5-0.1-15-0.1-22.6-0.1c-1.3,0-2.6,0-3.9,0c-0.1,0-0.6,0-1,0c-0.1,0,0.1,0-0.3-0.1
	c-0.5-0.1-1.1-0.3-1.6-0.5c-0.1-0.1,0.1,0-0.3-0.2c-0.1-0.1-0.9-0.6-1.4-0.9c0.2,0.1-0.1-0.3-0.4-0.5c0.1,0.2,0.1,0.2,0.1,0.2
	c0-0.1-0.1-0.1-0.1-0.2c-0.1-0.1-0.2-0.2-0.3-0.2c0,0.1,0,0.1,0.1,0.1c0.1,0.2,0.2,0.3,0.2,0.4c-0.1,0,0,0-0.2-0.4
	c-0.2-0.4-0.6-0.9-0.8-1.2c0-0.3-0.4-1.7-0.6-2c0-0.6-0.1-1.5-0.1-1.8c0-1.8,0-3.7,0-5.5c0-0.1,0,0,0-0.1c0.1-0.6,0.3-1.2,0.5-1.8
	c0-0.1,0,0,0-0.1c0,0,0.1,0,0.1-0.1c0,0,0,0,0,0c0,0,0,0,0,0c0,0,0-0.1,0.1-0.2c0.3-0.4,0.5-0.8,0.8-1.2c0,0,0.1-0.1,0.1-0.1
	c0,0,0,0,0,0l0,0c0.2-0.2,0.5-0.5,0.6-0.6c0,0,0,0,0.1,0c0,0,0,0,0-0.1c0.4-0.3,0.8-0.6,1.2-0.8c0,0,0,0,0.1,0
	c0.1-0.1,0.1-0.1,0.1-0.1c0,0,0,0,0,0c0,0,0,0,0.1-0.1c0.1,0,0,0,0.1,0c0.6-0.2,1.3-0.4,1.9-0.5c0.2,0,0.3,0,0.7,0
	c0.1,0,0.1,0,0.2,0c0.6,0,1.2,0,1.8,0c2.8,0,5.7,0,8.5,0c17,0,33.9,0,50.9,0c2,0,3.9,0,5.9,0c0.3,0,0.8,0.1,1.2,0.1
	c-0.1,0.1,1.4,0.7,1.9,0.8c0,0,0,0,0,0c-0.2-0.1-0.4-0.2-0.5-0.3c0.3,0.1,0.4,0.2,0.5,0.3c0,0,0,0,0,0c0.3,0.1,0.2,0-0.5-0.4
	c0.6,0.3,1.3,0.7,1.8,1.1c0.1,0,0.1,0.1,0.4,0.4s0.3,0.2,0.3,0.2c0.4,0.6,0.9,1.2,1.2,1.9c-0.4-0.7-0.4-0.7-0.4-0.4
	c0.1,0.1,0.2,0.2,0.3,0.5c-0.1-0.1-0.2-0.3-0.3-0.4c0.1,0.5,0.5,1.7,0.7,1.9c0,0,0-0.1,0-0.1c0-0.1,0-0.3,0-0.4c0,0.2,0,0.3,0,0.4
	c0,0,0,0.1,0,0.1c0.1,0,0.1,0,0.1-0.2c0-0.2,0-0.3,0-0.5c0,0.2,0,0.3,0,0.5c0.1,0.8,0.1,1.5,0.1,2.3
	C529.4,712.3,529.4,713.5,529.4,714.6z M449.4,707.1C449.4,707.1,449.4,707.1,449.4,707.1C449.4,707.1,449.4,707.1,449.4,707.1
	C449.4,707.1,449.4,707.1,449.4,707.1z M529.3,708.9c0.1,0.8,0.1,1.5,0.1,2.3c0,1.1,0,2.3,0,3.4c0,0.6-0.1,2-0.1,2.1
	c-0.1,0.5-0.2,1-0.4,1.5c0,0.1,0,0,0,0.1s0,0.1-0.2,0.3c-0.3,0.5-0.6,0.9-0.9,1.4c0,0-0.1,0.1-0.1,0.1c0.3-0.5,0.6-0.9,0.9-1.4
	c0.1-0.3,0.1-0.2,0.2-0.3c0-0.1,0,0,0-0.1c0.2-0.5,0.3-1,0.4-1.5c-0.1-0.1,0.1-1.5,0.1-2.1c0-1.1,0-2.3,0-3.4
	c-0.1-0.7,0-1.5-0.1-2.2C529.3,709.1,529.3,709.1,529.3,708.9z M529.3,708.9c0-0.2,0-0.3,0-0.5C529.3,708.6,529.3,708.7,529.3,708.9
	z M525.6,721.5C525.6,721.5,525.6,721.5,525.6,721.5c0.3-0.1,0.5-0.2,0.7-0.2C525.8,721.5,525.6,721.6,525.6,721.5z M450.4,705.6
	C450.4,705.6,450.4,705.6,450.4,705.6C450.4,705.6,450.4,705.6,450.4,705.6L450.4,705.6z M450.5,719.8
	C450.5,719.8,450.5,719.8,450.5,719.8c0.1,0.2,0.1,0.2,0.1,0.2C450.6,719.9,450.5,719.9,450.5,719.8z M528.5,707.1
	C528.5,707.1,528.5,707.1,528.5,707.1c0.1,0.6,0.5,1.8,0.7,2C529.1,709.9,528,706.6,528.5,707.1z M527.3,720.5
	c0.1-0.1,0.3-0.2,0.4-0.3C527.5,720.2,527.4,720.4,527.3,720.5z M452.2,704.2c-0.4,0.3-0.8,0.5-1.1,0.8c0,0,0,0,0-0.1
	C451.5,704.6,451.9,704.3,452.2,704.2c0.1-0.1,0.1-0.1,0.2-0.1C452.3,704.1,452.3,704.1,452.2,704.2z M526.9,705.1
	c-0.4-0.3-0.8-0.5-1.2-0.8c0.3,0.1,0.2,0-0.5-0.4c0.6,0.3,1.3,0.7,1.8,1.1c0.1,0,0.1,0.1,0.4,0.4s0.3,0.2,0.3,0.2
	c0.4,0.6,0.9,1.2,1.2,1.9c-0.4-0.7-0.4-0.7-0.4-0.4c0,0,0,0,0-0.1c-0.3-0.5-0.6-0.9-0.9-1.4c0,0,0.1,0.2-0.3-0.2
	C527,705.2,526.9,705.2,526.9,705.1z M452.6,704C452.5,704,452.6,704,452.6,704C452.5,704,452.5,704,452.6,704
	C452.7,703.9,452.6,703.9,452.6,704c0.7-0.3,1.4-0.5,2-0.6c0.2,0,0.3,0,0.7,0c0.1,0,0.1,0,0.2,0c0.6,0,1.2,0,1.8,0
	c2.8,0,5.7,0,8.5,0c17,0,33.9,0,50.9,0c2,0,3.9,0,5.9,0c0.3,0,0.8,0.1,1.2,0.1c-0.1,0.1,1.4,0.7,1.9,0.8c0.6,0.5-2-0.5-2-0.7
	c-0.4-0.1-0.9-0.1-1.2-0.1c-2,0-3.9,0-5.9,0c-17,0-33.9,0-50.9,0c-2.8,0-5.7,0-8.5,0c-0.6,0-1.2,0-1.8,0c-0.1,0-0.1,0-0.2,0
	c-0.3,0-0.5,0-0.7,0C453.9,703.6,453.2,703.8,452.6,704z M450.6,720C450.7,720.1,450.6,720.1,450.6,720L450.6,720z M525.7,704.3
	C525.7,704.3,525.7,704.3,525.7,704.3C525.6,704.3,525.6,704.3,525.7,704.3C525.6,704.3,525.7,704.3,525.7,704.3z M528.5,707.2
	C528.5,707.1,528.5,707.1,528.5,707.2c0.1,0.1,0.2,0.2,0.3,0.4C528.7,707.5,528.6,707.3,528.5,707.2z M525.1,704
	c0.3,0.1,0.4,0.2,0.5,0.3C525.5,704.2,525.3,704.1,525.1,704z M452.5,704c0,0-0.1,0-0.2,0.1C452.5,704,452.4,704,452.5,704
	C452.5,704,452.5,704,452.5,704z M449.6,718.4c0.2,0.4,0.6,1,0.9,1.4c-0.1-0.1-0.2-0.2-0.3-0.2c0,0.1,0,0.1,0.1,0.1
	c-0.2-0.4-0.6-0.9-0.8-1.2c0-0.3-0.4-1.7-0.6-2c0-0.6-0.1-1.5-0.1-1.8c0-1.8,0-3.7,0-5.5c0-0.1,0,0,0-0.1c0.1-0.6,0.3-1.2,0.5-1.8
	c0-0.1,0,0,0-0.1c0,0,0.1,0,0.1-0.1c0,0,0,0,0,0.1c-0.2,0.6-0.4,1.2-0.5,1.8c0,0.1,0,0,0,0.1c-0.1,1.8,0,3.7,0,5.5
	c0,0.3,0.1,1.2,0.1,1.8C449.2,716.8,449.6,718.1,449.6,718.4z M529.2,709.1C529.2,709.1,529.2,709.1,529.2,709.1c0,0,0-0.1,0-0.1
	C529.2,709,529.2,709,529.2,709.1z M529.2,708.9c0-0.1,0-0.3,0-0.4C529.2,708.7,529.2,708.8,529.2,708.9z M525.6,721.5
	c-0.1,0.1-0.1,0.1-0.1,0.1c-0.5,0.2-0.9,0.3-1.4,0.3c-0.3,0.1-0.2,0.1-0.3,0.1c-0.3,0-0.3,0-1,0c-13.6,0-27.2,0-40.8,0
	c-7.5-0.1-15-0.1-22.6-0.1c-1.3,0-2.6,0-3.9,0c-0.1,0-0.6,0-1,0c-0.1,0,0.1,0-0.3-0.1c-0.5-0.1-1.1-0.3-1.6-0.5
	c-0.1-0.1,0.1,0-0.3-0.2c-0.1-0.1-0.9-0.6-1.4-0.9c0.2,0.1-0.1-0.3-0.4-0.5c0-0.1-0.1-0.1-0.1-0.2c0.2,0.2,0.8,0.8,0.7,0.6
	c0.5,0.3,1.2,0.8,1.4,0.9c0.3,0.2,0.2,0.1,0.3,0.2c0.5,0.2,1,0.3,1.6,0.5c0.4,0.1,0.2,0.1,0.3,0.1c0.4,0,0.9,0,1,0
	c1.3,0,2.6,0,3.9,0c7.6,0,15.1,0,22.7,0c13.6,0,27.2,0,40.8,0c0.6,0.1,0.6,0.1,0.9,0.1c0.1,0,0,0,0.3-0.1
	C524.7,721.8,525.1,721.6,525.6,721.5C525.6,721.5,525.5,721.5,525.6,721.5z M526.2,721.4c-0.4,0.2-0.6,0.2-0.7,0.3
	C525.7,721.6,526,721.5,526.2,721.4z M527.1,720.6c0.1,0,0.1-0.1,0.2-0.1C527.2,720.5,527.1,720.6,527.1,720.6
	c-0.5,0.3-1.1,0.7-1.5,0.9c0,0,0,0-0.1,0C525.8,721.4,526.6,720.9,527.1,720.6z M527.7,720.1C527.7,720.1,527.7,720.1,527.7,720.1
	C527.7,720.1,527.7,720.1,527.7,720.1C527.7,720.1,527.7,720.1,527.7,720.1z M450.3,719.7c0.1,0.2,0.2,0.3,0.2,0.4
	C450.4,720.1,450.5,720.1,450.3,719.7z M449.6,706.8c-0.1,0.2-0.1,0.2-0.2,0.3c0,0,0-0.1,0.1-0.2c0.3-0.4,0.5-0.8,0.8-1.2
	c0,0,0.1-0.1,0.1-0.1C450.1,706,449.9,706.4,449.6,706.8z M450.4,705.6c0.2-0.2,0.5-0.5,0.6-0.6c0,0,0,0,0.1,0
	C451,705.1,450.5,705.6,450.4,705.6z M528.5,707.1C528.5,707.1,528.5,707.1,528.5,707.1C528.5,707.1,528.5,707.1,528.5,707.1
	C528.5,707.1,528.5,707.1,528.5,707.1z M450.3,719.5C450.3,719.5,450.3,719.5,450.3,719.5C450.3,719.5,450.3,719.5,450.3,719.5z
	 M525.6,721.5C525.6,721.5,525.6,721.5,525.6,721.5C525.6,721.5,525.6,721.5,525.6,721.5C525.5,721.5,525.6,721.5,525.6,721.5z"/>
</svg>
