<!-- icon666.com - MILLIONS vector ICONS FREE --><svg id="Layer_1" viewBox="0 0 512 512" xmlns="http://www.w3.org/2000/svg" data-name="Layer 1"><path d="m307.5531 55.1166h-103.1062c-83.5954 0-151.4868 67.17-151.4868 149.878v102.011c0 82.7075 67.8914 149.8778 151.4868 149.8778h103.1062c83.5955 0 151.4868-67.17 151.4868-149.8778v-102.011c.0001-82.7076-67.8913-149.878-151.4868-149.878zm31.5812 279.3621c-17.2284-3.3408-30.133-25.1978-34.8722-28.6685-11.7059-12.6157-18.4677-7.9265-21.8263 0-2.8755 7.2205-2.5161 23.1194-5.0173 24.7481-1.1711 1.7966-9.0149 3.512-23.5829 3.92-10.1529.2847-48.2313.6479-85.5493-48.2712-22.6269-29.9755-57.9586-93.1089-53.1863-97.7671 1.8542-5.7964 51.3993-5.0574 55.946-1.7149 1.4179 1.0423 3.0938 4.1653 5.2681 9.0657a268.335 268.335 0 0 0 25.3386 45.5759c1.0985 1.3882 18.3407 28.5069 22.83 2.2055 2.6276-12.4028 1.8727-40.0531-2.258-47.0464q-2.7591-4.9-14.0493-8.0858c5.0418-15.1489 63.4389-14.5271 69.7446-3.92 6.588 8.7769-.1688 43.6659 1.7558 56.3571 2.3071 15.2132 7.6648 16.9019 16.5579 7.5959 23.7511-24.854 32.78-60.8683 38.3848-62.973 1.0558-.4125 50.3264-.98 50.4265-.98 13.4391 0 11.54 6.2866 11.54 6.6159 0 4.2471-2.1526 10.9939-7.5263 19.6028-9.17 14.6909-25.4018 33.0476-33.6175 45.0851-7.4577 11.7355-5.7685 13.5848 6.7732 26.7086 21.8141 21.0427 35.1228 34.2517 35.1228 42.88.0006 12.4542-54.4918 9.786-58.2029 9.0663z" fill="#1d71b8"></path><path d="m362.215 282.5319c-12.5417-13.1238-14.2309-14.9731-6.7732-26.7086 8.2157-12.0375 24.4473-30.3942 33.6175-45.0851 5.3737-8.6089 7.5263-15.3557 7.5263-19.6028 0-.3293 1.8988-6.6159-11.54-6.6159-.1 0-49.3707.5675-50.4265.98-5.6046 2.1047-14.6337 38.119-38.3848 62.973-8.8931 9.306-14.2508 7.6173-16.5579-7.5959-1.9246-12.6912 4.8322-47.58-1.7558-56.3571-6.3057-10.6067-64.7028-11.2285-69.7446 3.92q11.2894 3.1857 14.0493 8.0858c4.1307 6.9933 4.8856 34.6436 2.258 47.0464-4.49 26.3014-21.7318-.8173-22.83-2.2055a268.335 268.335 0 0 1 -25.3386-45.5759c-2.1743-4.9-3.85-8.0234-5.2681-9.0657-4.5467-3.3425-54.0918-4.0815-55.946 1.7149-4.7723 4.6583 30.5594 67.7917 53.1863 97.7676 37.318 48.9191 75.3964 48.5559 85.5493 48.2712 14.568-.4084 22.4118-2.1238 23.5829-3.92 2.5012-1.6287 2.1418-17.5276 5.0173-24.7481 3.3586-7.9265 10.12-12.6157 21.8263 0 4.7392 3.4707 17.6438 25.3277 34.8722 28.6685 3.7111.72 58.2035 3.3879 58.2035-9.0664-.0006-8.6287-13.3093-21.8377-35.1234-42.8804z" fill="#fff"></path><g fill="#1d1d1b"><path d="m366.4629 278.2854c-4.8863-5.1133-8.7364-9.1509-9.3868-11.3462-.8957-3.0183 6.4084-12.3261 16.585-25.2317 16.2046-20.5489 28.5885-36.6543 28.9131-50.1179.5349-4.085-1.0244-13.0833-17.5342-13.0833-.1008 0-50.0974.4094-52.5361 1.363-4.44 1.6675-6.76 6.7054-11.8423 17.7434-19.4439 42.2271-32.3786 49.9312-32.9453 50.2542-3.4951-6.47-2.2934-19.075-1.6865-28.249 1.2436-18.8155 1.6967-31.7139-3.1407-38.4741-6.6206-10.285-34.1128-11.427-50.0489-9.7056-11.9907 1.2944-26.9917 4.9641-30.3628 15.094a6.0048 6.0048 0 0 0 4.3113 7.7394c5.78 1.6568 9.2637 3.5926 10.2649 5.2923 2.8277 4.7876 4.1934 30.2935 1.5542 42.7517-.08.3721-.694 4.484-1.9658 6.5022-3.5057-1.6-8.2847-8.1732-12.6025-14.579l-9.44 7.4645c22.0276 32.4245 33.2992 17.451 35.7733 2.978 2.684-12.8637 2.2509-42.2363-2.9546-51.1655a18.9482 18.9482 0 0 0 -7.753-7.0281c17.4286-6.6868 49.6759-3.5031 53.1407 1.1644 1.1609 1.5639 3.1411 2.5583 1.25 31.1745-.6181 9.3528-1.1518 17.43-.3169 22.9365 3.3391 22.0164 15.5564 22.636 26.8277 10.8416 15.4111-16.1267 24.79-36.4951 30.9951-49.9732a124.3831 124.3831 0 0 1 5.5972-11.309c.3363-.0132 49.8691-1.4115 53.4213-.1485-.0126 1.4436-.5522 6.66-6.6162 16.374-5.1347 8.2266-12.5522 17.6326-19.7251 26.7288-24.5379 31.1156-24.5817 33.327-6.3671 52.3872 5.1 5.3436 31.97 29.3977 33.3969 38.0076-8.4339 5.7563-46.0078 4.685-50.9975 3.9035-14.3361-2.78-26.3423-22.6079-31.9463-27.2121-6.7373-7.1384-13.2056-10.2214-19.2266-9.1658-8.3076 1.4566-11.72 10.0664-12.2422 11.38-2.6242 6.59-2.9173 17.988-3.9936 22.77-1.6587.5432-6.7144 1.7708-19.2 2.1209-36.8765 1.0251-64.1973-24.3965-80.5924-45.8885-20.6743-27.3886-48.8589-77.9162-52.1049-90.7617 8.9316-2.3672 39.6762-2.146 46.5747-.0976 2.6515 3.8119 8.9177 21.3033 22.26 42.6235l10.34-6.1118a280.0738 280.0738 0 0 1 -18.347-34.8877c-3.002-6.7661-4.8858-9.7666-7.1983-11.4663-6.9751-5.1279-48.01-4.4705-58.3608-1.1138-12.2274 3.968-6.7058 15.6057-3.5454 23.0369 9.5569 22.4763 34.2833 64.1228 50.8218 86.0324 25.9775 34.053 57.247 51.5638 90.4878 50.63 21.91-.6143 26.2837-3.7622 27.9356-5.9116 4.58-4.7019 3.22-19.2371 6.0478-26.4766 1.1943-2.79 2.4624-3.93 3.19-4.0579.28-.0518 2.9669-.3136 8.7131 5.8887 10.0486 10.8465 21.241 27.18 38.1023 30.45 3.072.5959 48.82 3.5727 61.1567-6.6009a10.5993 10.5993 0 0 0 4.19-8.3557c-.0011-11.0209-12.6436-23.7426-36.8707-47.1141z"></path><path d="m413.5728 106.5757 8.3525-8.6245q-4.1476-4.34-8.6167-8.3623l-8.3438 8.6333q4.4773 3.999 8.608 8.3535z"></path><path d="m427.8052 104.4629-9.4 7.4614a142.3046 142.3046 0 0 1 34.6347 93.07v102.0111c0 79.3349-65.2646 143.8779-145.4863 143.8779h-103.1063a145.8293 145.8293 0 0 1 -129.1211-77.6357l-10.3672 6.0551a157.8426 157.8426 0 0 0 139.4883 83.5806h103.1064c86.8379 0 157.4863-69.9268 157.4863-155.8779v-102.0108a154.2409 154.2409 0 0 0 -37.2348-100.5317z"></path><path d="m58.96 307.0054v-102.0108c0-79.3349 65.2656-143.8779 145.4873-143.8779h103.1064a145.7951 145.7951 0 0 1 91.938 32.4561l7.1338-9.6509a157.7341 157.7341 0 0 0 -99.0718-34.8052h-103.1064c-86.8389 0-157.4873 69.9268-157.4873 155.8779v102.0108a153.6327 153.6327 0 0 0 14.09 64.4218l11.1-4.5922a141.7 141.7 0 0 1 -13.19-59.8296z"></path></g></svg>